<svg width="20" height="20" viewBox="0 0 20 20" fill="none" xmlns="http://www.w3.org/2000/svg">
<path fill-rule="evenodd" clip-rule="evenodd" d="M13.1054 4.50498L4.91916 12.6912L4.62597 15.4574L7.40391 15.0002L15.7866 6.61754C16.3648 5.69872 16.1111 4.83466 15.5645 4.35635C15.0206 3.88047 14.0834 3.70614 13.1054 4.50498ZM16.5594 3.21924C17.6812 4.20083 18.0586 5.9351 17.0056 7.5146L16.9641 7.57684L8.12874 16.4122L4.45202 17.0174C3.67842 17.1447 2.99601 16.5005 3.07865 15.7208L3.47295 12.0006L12.0867 3.38687L12.113 3.36493C13.6462 2.08727 15.4278 2.22907 16.5594 3.21924ZM17.8461 15.2016C16.7834 14.9735 15.9535 14.1438 15.7254 13.0812C15.7062 12.9917 15.5785 12.9918 15.5593 13.0812L15.5571 13.0915C15.3304 14.1472 14.5047 14.9729 13.4488 15.1995L13.4448 15.2004C13.3538 15.2199 13.3538 15.3496 13.4447 15.3692C14.5033 15.5965 15.3304 16.4228 15.5571 17.4813L15.5597 17.493C15.5786 17.5813 15.7045 17.5812 15.7234 17.493C15.9521 16.4276 16.7847 15.5952 17.8502 15.3664C17.9385 15.3475 17.9386 15.2215 17.8503 15.2025L17.8461 15.2016ZM3.62391 4.38277C3.81397 5.26826 4.50551 5.95971 5.39112 6.14974L5.39464 6.1505C5.46823 6.16634 5.46817 6.27136 5.39455 6.28712C4.50665 6.47773 3.81282 7.17147 3.62219 8.05925C3.60645 8.13278 3.50154 8.13281 3.48575 8.05929L3.48365 8.04952C3.29474 7.16746 2.60548 6.47887 1.72331 6.28941C1.64755 6.27312 1.64757 6.16501 1.72335 6.14876L1.72675 6.14803C2.60663 5.95914 3.29474 5.27112 3.48365 4.39135L3.48549 4.38279C3.50149 4.30822 3.60788 4.3082 3.62391 4.38277Z" fill="#1D2129"/>
</svg>
