<svg width="16" height="16" viewBox="0 0 16 16" fill="none" xmlns="http://www.w3.org/2000/svg">
<path d="M3.83317 7.99996C3.83317 8.4602 3.46007 8.83329 2.99984 8.83329C2.5396 8.83329 2.1665 8.4602 2.1665 7.99996C2.1665 7.53972 2.5396 7.16663 2.99984 7.16663C3.46007 7.16663 3.83317 7.53972 3.83317 7.99996Z" fill="#4E5969"/>
<path d="M8.83317 7.99996C8.83317 8.4602 8.46007 8.83329 7.99984 8.83329C7.5396 8.83329 7.1665 8.4602 7.1665 7.99996C7.1665 7.53972 7.5396 7.16663 7.99984 7.16663C8.46007 7.16663 8.83317 7.53972 8.83317 7.99996Z" fill="#4E5969"/>
<path d="M12.9998 8.83329C13.4601 8.83329 13.8332 8.4602 13.8332 7.99996C13.8332 7.53972 13.4601 7.16663 12.9998 7.16663C12.5396 7.16663 12.1665 7.53972 12.1665 7.99996C12.1665 8.4602 12.5396 8.83329 12.9998 8.83329Z" fill="#4E5969"/>
</svg>
