<svg width="16" height="16" viewBox="0 0 16 16" fill="none" xmlns="http://www.w3.org/2000/svg">
<path d="M7.33333 2C10.2789 2 12.6667 4.38781 12.6667 7.33333C12.6667 8.67155 12.1735 9.89437 11.3594 10.8307L13.5322 13.1589C13.7206 13.3607 13.7097 13.6771 13.5078 13.8656C13.3059 14.054 12.9895 14.043 12.8011 13.8411L10.6357 11.5212C9.72747 12.2384 8.58048 12.6667 7.33333 12.6667C4.38781 12.6667 2 10.2789 2 7.33333C2 4.38781 4.38781 2 7.33333 2ZM7.33333 3C4.9401 3 3 4.9401 3 7.33333C3 9.72657 4.9401 11.6667 7.33333 11.6667C9.72657 11.6667 11.6667 9.72657 11.6667 7.33333C11.6667 4.9401 9.72657 3 7.33333 3Z" fill="#1D2129"/>
</svg>
